<svg width="64" height="65" viewBox="0 0 64 65" fill="none" xmlns="http://www.w3.org/2000/svg">
<path d="M23.9993 2.91183C23.9993 2.38141 24.21 1.87271 24.5851 1.49764C24.9602 1.12258 25.469 0.911865 25.9994 0.911865L38.0006 0.911865C38.531 0.911865 39.0398 1.12258 39.4149 1.49764C39.79 1.87271 40.0007 2.38141 40.0007 2.91183C40.0007 3.44225 39.79 3.95095 39.4149 4.32602C39.0398 4.70109 38.531 4.9118 38.0006 4.9118H36.0004V9.19172C41.4481 9.97801 46.5433 12.3519 50.6496 16.0169C54.7558 19.6819 57.6909 24.4755 59.0882 29.7988C60.4855 35.1221 60.2831 40.739 58.5063 45.948C56.7295 51.1569 53.4569 55.7268 49.0976 59.0869L51.5018 61.4948C51.8774 61.8698 52.0886 62.3787 52.089 62.9094C52.0894 63.4401 51.8789 63.9492 51.5038 64.3248C51.1288 64.7003 50.6199 64.9115 50.0891 64.9119C49.5583 64.9122 49.0491 64.7018 48.6736 64.3268L45.6893 61.3428C41.5088 63.689 36.794 64.9179 32 64.9108C27.206 64.9179 22.4912 63.689 18.3107 61.3428L15.3264 64.3268C15.1405 64.5124 14.9197 64.6597 14.6769 64.7601C14.434 64.8605 14.1737 64.9121 13.9109 64.9119C13.6481 64.9117 13.3879 64.8597 13.1451 64.759C12.9024 64.6583 12.6819 64.5107 12.4962 64.3248C12.3105 64.1388 12.1632 63.9181 12.0628 63.6753C11.9624 63.4324 11.9108 63.1722 11.911 62.9094C11.9114 62.3787 12.1226 61.8698 12.4982 61.4948L14.9064 59.0869C10.5471 55.7271 7.27458 51.1575 5.49754 45.9488C3.7205 40.7402 3.51775 35.1235 4.91463 29.8003C6.31151 24.4772 9.24608 19.6835 13.3518 16.0183C17.4574 12.353 22.5522 9.97864 27.9996 9.19172V4.9118H25.9994C25.469 4.9118 24.9602 4.70109 24.5851 4.32602C24.21 3.95095 23.9993 3.44225 23.9993 2.91183ZM34.0002 22.9115C34.0002 22.3811 33.7895 21.8724 33.4143 21.4973C33.0392 21.1222 32.5305 20.9115 32 20.9115C31.4695 20.9115 30.9608 21.1222 30.5857 21.4973C30.2105 21.8724 29.9998 22.3811 29.9998 22.9115V36.3593L24.2833 45.8791C24.0101 46.3342 23.9289 46.8792 24.0575 47.3941C24.1862 47.9091 24.5142 48.3519 24.9693 48.625C25.4245 48.8982 25.9695 48.9794 26.4846 48.8507C26.9996 48.7221 27.4424 48.3942 27.7156 47.939L33.7162 37.9392C33.9021 37.6286 34.0003 37.2733 34.0002 36.9112V22.9115ZM3.43733 22.4595C2.40227 21.5592 1.56351 20.4557 0.973209 19.2175C0.38291 17.9793 0.0536953 16.6329 0.00603716 15.262C-0.041621 13.8911 0.193297 12.5251 0.696182 11.2489C1.19907 9.97272 1.95917 8.81361 2.92921 7.84367C3.89925 6.87374 5.05849 6.11373 6.33484 5.6109C7.61119 5.10807 8.97735 4.87318 10.3484 4.92083C11.7194 4.96848 13.0659 5.29766 14.3043 5.88789C15.5426 6.47813 16.6463 7.31679 17.5466 8.35174C11.4667 11.4398 6.52573 16.3802 3.43733 22.4595ZM46.4534 8.35174C47.3537 7.31679 48.4574 6.47813 49.6957 5.88789C50.9341 5.29766 52.2806 4.96848 53.6516 4.92083C55.0226 4.87318 56.3888 5.10807 57.6652 5.6109C58.9415 6.11373 60.1008 6.87374 61.0708 7.84367C62.0408 8.81361 62.8009 9.97272 63.3038 11.2489C63.8067 12.5251 64.0416 13.8911 63.994 15.262C63.9463 16.6329 63.6171 17.9793 63.0268 19.2175C62.4365 20.4557 61.5977 21.5592 60.5627 22.4595C57.4743 16.3802 52.5333 11.4398 46.4534 8.35174Z" fill="white"/>
</svg>
