<svg width="64" height="65" viewBox="0 0 64 65" fill="none" xmlns="http://www.w3.org/2000/svg">
<g clip-path="url(#clip0_115_598)">
<path d="M48 4.91187C49.0609 4.91187 50.0783 5.33329 50.8284 6.08344C51.5786 6.83358 52 7.851 52 8.91187V56.9119C52 57.9727 51.5786 58.9901 50.8284 59.7403C50.0783 60.4904 49.0609 60.9119 48 60.9119H16C14.9391 60.9119 13.9217 60.4904 13.1716 59.7403C12.4214 58.9901 12 57.9727 12 56.9119V8.91187C12 7.851 12.4214 6.83358 13.1716 6.08344C13.9217 5.33329 14.9391 4.91187 16 4.91187H48ZM16 0.911865C13.8783 0.911865 11.8434 1.75472 10.3431 3.25501C8.84285 4.7553 8 6.79013 8 8.91187V56.9119C8 59.0336 8.84285 61.0684 10.3431 62.5687C11.8434 64.069 13.8783 64.9119 16 64.9119H48C50.1217 64.9119 52.1566 64.069 53.6569 62.5687C55.1571 61.0684 56 59.0336 56 56.9119V8.91187C56 6.79013 55.1571 4.7553 53.6569 3.25501C52.1566 1.75472 50.1217 0.911865 48 0.911865L16 0.911865Z" fill="white"/>
<path d="M16 10.9119C16 10.3814 16.2107 9.87272 16.5858 9.49765C16.9609 9.12258 17.4696 8.91187 18 8.91187H46C46.5304 8.91187 47.0391 9.12258 47.4142 9.49765C47.7893 9.87272 48 10.3814 48 10.9119V18.9119C48 19.4423 47.7893 19.951 47.4142 20.3261C47.0391 20.7012 46.5304 20.9119 46 20.9119H18C17.4696 20.9119 16.9609 20.7012 16.5858 20.3261C16.2107 19.951 16 19.4423 16 18.9119V10.9119ZM16 26.9119C16 26.3814 16.2107 25.8727 16.5858 25.4977C16.9609 25.1226 17.4696 24.9119 18 24.9119H22C22.5304 24.9119 23.0391 25.1226 23.4142 25.4977C23.7893 25.8727 24 26.3814 24 26.9119V30.9119C24 31.4423 23.7893 31.951 23.4142 32.3261C23.0391 32.7012 22.5304 32.9119 22 32.9119H18C17.4696 32.9119 16.9609 32.7012 16.5858 32.3261C16.2107 31.951 16 31.4423 16 30.9119V26.9119ZM16 38.9119C16 38.3814 16.2107 37.8727 16.5858 37.4977C16.9609 37.1226 17.4696 36.9119 18 36.9119H22C22.5304 36.9119 23.0391 37.1226 23.4142 37.4977C23.7893 37.8727 24 38.3814 24 38.9119V42.9119C24 43.4423 23.7893 43.951 23.4142 44.3261C23.0391 44.7012 22.5304 44.9119 22 44.9119H18C17.4696 44.9119 16.9609 44.7012 16.5858 44.3261C16.2107 43.951 16 43.4423 16 42.9119V38.9119ZM16 50.9119C16 50.3814 16.2107 49.8727 16.5858 49.4977C16.9609 49.1226 17.4696 48.9119 18 48.9119H34C34.5304 48.9119 29.6249 49.1226 30 49.4977C30.3751 49.8727 30 50.3814 30 50.9119V54.9119C30 55.4423 30.3751 55.951 30 56.3261C29.6249 56.7012 34.5304 56.9119 34 56.9119H18C17.4696 56.9119 16.9609 56.7012 16.5858 56.3261C16.2107 55.951 16 55.4423 16 54.9119V50.9119ZM28 26.9119C28 26.3814 28.2107 25.8727 28.5858 25.4977C28.9609 25.1226 29.4696 24.9119 30 24.9119H34C34.5304 24.9119 35.0391 25.1226 35.4142 25.4977C35.7893 25.8727 36 26.3814 36 26.9119V30.9119C36 31.4423 35.7893 31.951 35.4142 32.3261C35.0391 32.7012 34.5304 32.9119 34 32.9119H30C29.4696 32.9119 28.9609 32.7012 28.5858 32.3261C28.2107 31.951 28 31.4423 28 30.9119V26.9119ZM28 38.9119C28 38.3814 28.2107 37.8727 28.5858 37.4977C28.9609 37.1226 29.4696 36.9119 30 36.9119H34C34.5304 36.9119 35.0391 37.1226 35.4142 37.4977C35.7893 37.8727 36 38.3814 36 38.9119V42.9119C36 43.4423 35.7893 43.951 35.4142 44.3261C35.0391 44.7012 34.5304 44.9119 34 44.9119H30C29.4696 44.9119 28.9609 44.7012 28.5858 44.3261C28.2107 43.951 28 43.4423 28 42.9119V38.9119ZM28 50.9119C28 50.3814 28.2107 49.8727 28.5858 49.4977C28.9609 49.1226 29.4696 48.9119 30 48.9119H34C34.5304 48.9119 35.0391 49.1226 35.4142 49.4977C35.7893 49.8727 36 50.3814 36 50.9119V54.9119C36 55.4423 35.7893 55.951 35.4142 56.3261C35.0391 56.7012 34.5304 56.9119 34 56.9119H30C29.4696 56.9119 28.9609 56.7012 28.5858 56.3261C28.2107 55.951 28 55.4423 28 54.9119V50.9119ZM40 26.9119C40 26.3814 40.2107 25.8727 40.5858 25.4977C40.9609 25.1226 41.4696 24.9119 42 24.9119H46C46.5304 24.9119 47.0391 25.1226 47.4142 25.4977C47.7893 25.8727 48 26.3814 48 26.9119V30.9119C48 31.4423 47.7893 31.951 47.4142 32.3261C47.0391 32.7012 46.5304 32.9119 46 32.9119H42C41.4696 32.9119 40.9609 32.7012 40.5858 32.3261C40.2107 31.951 40 31.4423 40 30.9119V26.9119ZM40 38.9119C40 38.3814 40.2107 37.8727 40.5858 37.4977C40.9609 37.1226 41.4696 36.9119 42 36.9119H46C46.5304 36.9119 47.0391 37.1226 47.4142 37.4977C47.7893 37.8727 48 38.3814 48 38.9119V54.9119C48 55.4423 47.7893 55.951 47.4142 56.3261C47.0391 56.7012 46.5304 56.9119 46 56.9119H42C41.4696 56.9119 40.9609 56.7012 40.5858 56.3261C40.2107 55.951 40 55.4423 40 54.9119V38.9119Z" fill="white"/>
</g>
<defs>
<clipPath id="clip0_115_598">
<rect width="64" height="64" fill="white" transform="translate(0 0.911865)"/>
</clipPath>
</defs>
</svg>
