<svg width="64" height="65" viewBox="0 0 64 65" fill="none" xmlns="http://www.w3.org/2000/svg">
<g clip-path="url(#clip0_115_608)">
<path d="M64 32.9119C64 48.3759 49.672 60.9119 32 60.9119C28.8304 60.9189 25.6738 60.5074 22.612 59.6879C20.276 60.8719 14.912 63.1439 5.888 64.6239C5.088 64.7519 4.48 63.9199 4.796 63.1759C6.212 59.8319 7.492 55.3759 7.876 51.3119C2.976 46.3919 0 39.9519 0 32.9119C0 17.4479 14.328 4.91187 32 4.91187C49.672 4.91187 64 17.4479 64 32.9119ZM28.776 27.9759C28.5121 27.5826 28.2077 27.2179 27.868 26.8879C27.3313 26.3399 26.6944 25.9 25.992 25.5919L25.96 25.5759C25.0121 25.1379 23.9802 24.9113 22.936 24.9119C19.104 24.9119 16 27.8959 16 31.5799C16 35.2599 19.104 38.2439 22.936 38.2439C24.308 38.2439 25.584 37.8639 26.66 37.2039C26.112 38.7599 25.1 40.4199 23.42 42.0839C23.2618 42.2383 23.1368 42.4235 23.0528 42.6281C22.9689 42.8327 22.9277 43.0523 22.9318 43.2734C22.9359 43.4945 22.9853 43.7124 23.0768 43.9137C23.1683 44.115 23.3001 44.2954 23.464 44.4439C24.156 45.0839 25.252 45.0639 25.92 44.4039C31.256 39.0879 31.4 33.3719 29.684 29.5799C29.4311 29.0198 29.1272 28.4842 28.776 27.9799V27.9759ZM44 37.2039C43.456 38.7599 42.44 40.4199 40.76 42.0839C40.602 42.2386 40.4774 42.424 40.3937 42.6287C40.3101 42.8335 40.2693 43.0531 40.2738 43.2742C40.2783 43.4953 40.328 43.7132 40.4199 43.9143C40.5118 44.1155 40.6438 44.2957 40.808 44.4439C41.496 45.0839 42.592 45.0639 43.26 44.4039C48.596 39.0879 48.74 33.3719 47.028 29.5799C46.7739 29.0196 46.4686 28.484 46.116 27.9799C45.8523 27.5852 45.548 27.2192 45.208 26.8879C44.6713 26.3399 44.0344 25.9 43.332 25.5919L43.3 25.5759C42.3533 25.1384 41.3229 24.9119 40.28 24.9119C36.452 24.9119 33.344 27.8959 33.344 31.5799C33.344 35.2599 36.452 38.2439 40.28 38.2439C41.652 38.2439 42.928 37.8639 44.004 37.2039H44Z" fill="white"/>
</g>
<defs>
<clipPath id="clip0_115_608">
<rect width="64" height="64" fill="white" transform="translate(0 0.911865)"/>
</clipPath>
</defs>
</svg>
