<svg width="566" height="36" viewBox="0 0 566 36" fill="none" xmlns="http://www.w3.org/2000/svg">
<path d="M0.0428467 35.2399V1.6399H7.86685L21.7868 24.4879H17.6588L31.1948 1.6399H39.0188L39.1148 35.2399H30.3788L30.2828 14.9359H31.7708L21.6428 31.9279H17.4188L7.00285 14.9359H8.82685V35.2399H0.0428467Z" fill="white"/>
<path d="M41.8077 35.2399L56.6397 1.6399H65.9997L80.8797 35.2399H70.9917L59.3757 6.2959H63.1197L51.5037 35.2399H41.8077ZM49.9197 28.7119L52.3677 21.7039H68.7837L71.2317 28.7119H49.9197Z" fill="white"/>
<path d="M92.0701 27.7999L91.5421 17.1439L105.99 1.6399H116.454L102.054 17.2399L96.7741 22.7599L92.0701 27.7999ZM83.5741 35.2399V1.6399H92.9821V35.2399H83.5741ZM106.134 35.2399L95.1901 21.3679L101.382 14.7439L117.174 35.2399H106.134Z" fill="white"/>
<path d="M130.773 35.9119C128.021 35.9119 125.365 35.5759 122.805 34.9039C120.277 34.1999 118.213 33.3039 116.613 32.2159L119.733 25.2079C121.237 26.1679 122.965 26.9679 124.917 27.6079C126.901 28.2159 128.869 28.5199 130.821 28.5199C132.133 28.5199 133.189 28.4079 133.989 28.1839C134.789 27.9279 135.365 27.6079 135.717 27.2239C136.101 26.8079 136.293 26.3279 136.293 25.7839C136.293 25.0159 135.941 24.4079 135.237 23.9599C134.533 23.5119 133.621 23.1439 132.501 22.8559C131.381 22.5679 130.133 22.2799 128.757 21.9919C127.413 21.7039 126.053 21.3359 124.677 20.8879C123.333 20.4399 122.101 19.8639 120.981 19.1599C119.861 18.4239 118.949 17.4799 118.245 16.3279C117.541 15.1439 117.189 13.6559 117.189 11.8639C117.189 9.8479 117.733 8.0239 118.821 6.3919C119.941 4.7599 121.605 3.4479 123.813 2.4559C126.021 1.4639 128.773 0.967896 132.069 0.967896C134.277 0.967896 136.437 1.2239 138.549 1.7359C140.693 2.2159 142.597 2.9359 144.261 3.8959L141.333 10.9519C139.733 10.0879 138.149 9.4479 136.581 9.0319C135.013 8.5839 133.493 8.3599 132.021 8.3599C130.709 8.3599 129.653 8.5039 128.853 8.7919C128.053 9.0479 127.477 9.3999 127.125 9.8479C126.773 10.2959 126.597 10.8079 126.597 11.3839C126.597 12.1199 126.933 12.7119 127.605 13.1599C128.309 13.5759 129.221 13.9279 130.341 14.2159C131.493 14.4719 132.741 14.7439 134.085 15.0319C135.461 15.3199 136.821 15.6879 138.165 16.1359C139.541 16.5519 140.789 17.1279 141.909 17.8639C143.029 18.5679 143.925 19.5119 144.597 20.6959C145.301 21.8479 145.653 23.3039 145.653 25.0639C145.653 27.0159 145.093 28.8239 143.973 30.4879C142.885 32.1199 141.237 33.4319 139.029 34.4239C136.853 35.4159 134.101 35.9119 130.773 35.9119Z" fill="white"/>
<path d="M150.043 35.2399V1.6399H159.547V35.2399H150.043Z" fill="white"/>
<path d="M166.308 35.2399V1.6399H174.132L188.052 24.4879H183.924L197.46 1.6399H205.284L205.38 35.2399H196.644L196.548 14.9359H198.036L187.908 31.9279H183.684L173.268 14.9359H175.092V35.2399H166.308Z" fill="white"/>
<path d="M208.073 35.2399L222.905 1.6399H232.265L247.145 35.2399H237.257L225.641 6.2959H229.385L217.769 35.2399H208.073ZM216.185 28.7119L218.633 21.7039H235.049L237.497 28.7119H216.185Z" fill="white"/>
<path d="M249.84 35.2399V1.6399H259.344V27.7039H275.376V35.2399H249.84Z" fill="white"/>
<path d="M309.857 35.9119C307.201 35.9119 304.737 35.4959 302.465 34.6639C300.225 33.7999 298.273 32.5839 296.609 31.0159C294.977 29.4479 293.697 27.6079 292.769 25.4959C291.841 23.3519 291.377 20.9999 291.377 18.4399C291.377 15.8799 291.841 13.5439 292.769 11.4319C293.697 9.2879 294.977 7.4319 296.609 5.8639C298.273 4.2959 300.225 3.0959 302.465 2.2639C304.737 1.3999 307.201 0.967896 309.857 0.967896C312.961 0.967896 315.729 1.5119 318.161 2.5999C320.625 3.6879 322.673 5.2559 324.305 7.3039L318.257 12.7759C317.169 11.4959 315.969 10.5199 314.657 9.8479C313.377 9.1759 311.937 8.8399 310.337 8.8399C308.961 8.8399 307.697 9.0639 306.545 9.5119C305.393 9.9599 304.401 10.6159 303.569 11.4799C302.769 12.3119 302.129 13.3199 301.649 14.5039C301.201 15.6879 300.977 16.9999 300.977 18.4399C300.977 19.8799 301.201 21.1919 301.649 22.3759C302.129 23.5599 302.769 24.5839 303.569 25.4479C304.401 26.2799 305.393 26.9199 306.545 27.3679C307.697 27.8159 308.961 28.0399 310.337 28.0399C311.937 28.0399 313.377 27.7039 314.657 27.0319C315.969 26.3599 317.169 25.3839 318.257 24.1039L324.305 29.5759C322.673 31.5919 320.625 33.1599 318.161 34.2799C315.729 35.3679 312.961 35.9119 309.857 35.9119Z" fill="white"/>
<path d="M344.784 35.9119C342.096 35.9119 339.616 35.4799 337.344 34.6159C335.072 33.7519 333.088 32.5359 331.392 30.9679C329.728 29.3679 328.432 27.5119 327.504 25.3999C326.576 23.2879 326.112 20.9679 326.112 18.4399C326.112 15.9119 326.576 13.5919 327.504 11.4799C328.432 9.3679 329.728 7.5279 331.392 5.9599C333.088 4.3599 335.072 3.1279 337.344 2.2639C339.616 1.3999 342.096 0.967896 344.784 0.967896C347.504 0.967896 349.984 1.3999 352.224 2.2639C354.496 3.1279 356.464 4.3599 358.128 5.9599C359.792 7.5279 361.088 9.3679 362.016 11.4799C362.976 13.5919 363.456 15.9119 363.456 18.4399C363.456 20.9679 362.976 23.3039 362.016 25.4479C361.088 27.5599 359.792 29.3999 358.128 30.9679C356.464 32.5359 354.496 33.7519 352.224 34.6159C349.984 35.4799 347.504 35.9119 344.784 35.9119ZM344.784 28.0399C346.064 28.0399 347.248 27.8159 348.336 27.3679C349.456 26.9199 350.416 26.2799 351.216 25.4479C352.048 24.5839 352.688 23.5599 353.136 22.3759C353.616 21.1919 353.856 19.8799 353.856 18.4399C353.856 16.9679 353.616 15.6559 353.136 14.5039C352.688 13.3199 352.048 12.3119 351.216 11.4799C350.416 10.6159 349.456 9.9599 348.336 9.5119C347.248 9.0639 346.064 8.8399 344.784 8.8399C343.504 8.8399 342.304 9.0639 341.184 9.5119C340.096 9.9599 339.136 10.6159 338.304 11.4799C337.504 12.3119 336.864 13.3199 336.384 14.5039C335.936 15.6559 335.712 16.9679 335.712 18.4399C335.712 19.8799 335.936 21.1919 336.384 22.3759C336.864 23.5599 337.504 24.5839 338.304 25.4479C339.136 26.2799 340.096 26.9199 341.184 27.3679C342.304 27.8159 343.504 28.0399 344.784 28.0399Z" fill="white"/>
<path d="M363.933 35.2399L378.765 1.6399H388.125L403.005 35.2399H393.117L381.501 6.2959H385.245L373.629 35.2399H363.933ZM372.045 28.7119L374.493 21.7039H390.909L393.357 28.7119H372.045Z" fill="white"/>
<path d="M421.982 35.9119C419.326 35.9119 416.862 35.4959 414.59 34.6639C412.35 33.7999 410.398 32.5839 408.734 31.0159C407.102 29.4479 405.822 27.6079 404.894 25.4959C403.966 23.3519 403.502 20.9999 403.502 18.4399C403.502 15.8799 403.966 13.5439 404.894 11.4319C405.822 9.2879 407.102 7.4319 408.734 5.8639C410.398 4.2959 412.35 3.0959 414.59 2.2639C416.862 1.3999 419.326 0.967896 421.982 0.967896C425.086 0.967896 427.854 1.5119 430.286 2.5999C432.75 3.6879 434.798 5.2559 436.43 7.3039L430.382 12.7759C429.294 11.4959 428.094 10.5199 426.782 9.8479C425.502 9.1759 424.062 8.8399 422.462 8.8399C421.086 8.8399 419.822 9.0639 418.67 9.5119C417.518 9.9599 416.526 10.6159 415.694 11.4799C414.894 12.3119 414.254 13.3199 413.774 14.5039C413.326 15.6879 413.102 16.9999 413.102 18.4399C413.102 19.8799 413.326 21.1919 413.774 22.3759C414.254 23.5599 414.894 24.5839 415.694 25.4479C416.526 26.2799 417.518 26.9199 418.67 27.3679C419.822 27.8159 421.086 28.0399 422.462 28.0399C424.062 28.0399 425.502 27.7039 426.782 27.0319C428.094 26.3599 429.294 25.3839 430.382 24.1039L436.43 29.5759C434.798 31.5919 432.75 33.1599 430.286 34.2799C427.854 35.3679 425.086 35.9119 421.982 35.9119Z" fill="white"/>
<path d="M463.132 1.6399H472.636V35.2399H463.132V1.6399ZM450.172 35.2399H440.668V1.6399H450.172V35.2399ZM463.804 22.1359H449.5V14.2639H463.804V22.1359Z" fill="white"/>
<path d="M479.34 35.2399V1.6399H488.844V35.2399H479.34Z" fill="white"/>
<path d="M495.605 35.2399V1.6399H503.429L521.957 24.0079H518.261V1.6399H527.573V35.2399H519.749L501.221 12.8719H504.917V35.2399H495.605Z" fill="white"/>
<path d="M551.077 35.9119C548.421 35.9119 545.957 35.4959 543.685 34.6639C541.413 33.7999 539.445 32.5839 537.781 31.0159C536.149 29.4479 534.869 27.6079 533.941 25.4959C533.013 23.3519 532.549 20.9999 532.549 18.4399C532.549 15.8799 533.013 13.5439 533.941 11.4319C534.869 9.2879 536.165 7.4319 537.829 5.8639C539.493 4.2959 541.461 3.0959 543.733 2.2639C546.037 1.3999 548.549 0.967896 551.269 0.967896C554.437 0.967896 557.269 1.4959 559.765 2.5519C562.261 3.6079 564.325 5.1279 565.957 7.1119L559.909 12.5839C558.757 11.3359 557.509 10.4079 556.165 9.7999C554.853 9.1599 553.381 8.8399 551.749 8.8399C550.309 8.8399 548.997 9.0639 547.813 9.5119C546.629 9.9599 545.621 10.6159 544.789 11.4799C543.957 12.3119 543.301 13.3199 542.821 14.5039C542.373 15.6559 542.149 16.9679 542.149 18.4399C542.149 19.8479 542.373 21.1439 542.821 22.3279C543.301 23.5119 543.957 24.5359 544.789 25.3999C545.621 26.2319 546.613 26.8879 547.765 27.3679C548.949 27.8159 550.245 28.0399 551.653 28.0399C553.061 28.0399 554.437 27.8159 555.781 27.3679C557.125 26.8879 558.485 26.0879 559.861 24.9679L565.189 31.6399C563.269 33.0159 561.045 34.0719 558.517 34.8079C555.989 35.5439 553.509 35.9119 551.077 35.9119ZM556.789 30.3919V17.7199H565.189V31.6399L556.789 30.3919Z" fill="white"/>
</svg>
