<svg width="86" height="65" viewBox="0 0 86 65" fill="none" xmlns="http://www.w3.org/2000/svg">
<path d="M32.3334 32.9119C36.5768 32.9119 40.6465 31.2262 43.6471 28.2256C46.6477 25.225 48.3334 21.1553 48.3334 16.9119C48.3334 12.6684 46.6477 8.59874 43.6471 5.59816C40.6465 2.59758 36.5768 0.911865 32.3334 0.911865C28.0899 0.911865 24.0202 2.59758 21.0197 5.59816C18.0191 8.59874 16.3334 12.6684 16.3334 16.9119C16.3334 21.1553 18.0191 25.225 21.0197 28.2256C24.0202 31.2262 28.0899 32.9119 32.3334 32.9119ZM5.66671 64.9119C5.66671 64.9119 0.333374 64.9119 0.333374 59.5785C0.333374 54.2452 5.66671 38.2452 32.3334 38.2452C59 38.2452 64.3334 54.2452 64.3334 59.5785C64.3334 64.9119 59 64.9119 59 64.9119H5.66671ZM59 8.91187C59 8.20462 59.281 7.52634 59.7811 7.02625C60.2812 6.52615 60.9595 6.2452 61.6667 6.2452H83C83.7073 6.2452 84.3856 6.52615 84.8857 7.02625C85.3857 7.52634 85.6667 8.20462 85.6667 8.91187C85.6667 9.61911 85.3857 10.2974 84.8857 10.7975C84.3856 11.2976 83.7073 11.5785 83 11.5785H61.6667C60.9595 11.5785 60.2812 11.2976 59.7811 10.7975C59.281 10.2974 59 9.61911 59 8.91187ZM61.6667 22.2452C60.9595 22.2452 60.2812 22.5262 59.7811 23.0262C59.281 23.5263 59 24.2046 59 24.9119C59 25.6191 59.281 26.2974 59.7811 26.7975C60.2812 27.2976 60.9595 27.5785 61.6667 27.5785H83C83.7073 27.5785 84.3856 27.2976 84.8857 26.7975C85.3857 26.2974 85.6667 25.6191 85.6667 24.9119C85.6667 24.2046 85.3857 23.5263 84.8857 23.0262C84.3856 22.5262 83.7073 22.2452 83 22.2452H61.6667ZM72.3334 38.2452C71.6261 38.2452 70.9478 38.5261 70.4477 39.0262C69.9477 39.5263 69.6667 40.2046 69.6667 40.9119C69.6667 41.6191 69.9477 42.2974 70.4477 42.7975C70.9478 43.2976 71.6261 43.5785 72.3334 43.5785H83C83.7073 43.5785 84.3856 43.2976 84.8857 42.7975C85.3857 42.2974 85.6667 41.6191 85.6667 40.9119C85.6667 40.2046 85.3857 39.5263 84.8857 39.0262C84.3856 38.5261 83.7073 38.2452 83 38.2452H72.3334ZM72.3334 54.2452C71.6261 54.2452 70.9478 54.5261 70.4477 55.0262C69.9477 55.5263 69.6667 56.2046 69.6667 56.9119C69.6667 57.6191 69.9477 58.2974 70.4477 58.7975C70.9478 59.2976 71.6261 59.5785 72.3334 59.5785H83C83.7073 59.5785 84.3856 59.2976 84.8857 58.7975C85.3857 58.2974 85.6667 57.6191 85.6667 56.9119C85.6667 56.2046 85.3857 55.5263 84.8857 55.0262C84.3856 54.5261 83.7073 54.2452 83 54.2452H72.3334Z" fill="white"/>
</svg>
