<svg width="64" height="65" viewBox="0 0 64 65" fill="none" xmlns="http://www.w3.org/2000/svg">
<g clip-path="url(#clip0_115_603)">
<path d="M6 4.91187C5.46957 4.91187 4.96086 5.12258 4.58579 5.49765C4.21071 5.87272 4 6.38143 4 6.91187V18.9119C4 19.4423 3.78929 19.951 3.41421 20.3261C3.03914 20.7012 2.53043 20.9119 2 20.9119C1.46957 20.9119 0.960859 20.7012 0.585786 20.3261C0.210714 19.951 0 19.4423 0 18.9119V6.91187C0 5.32057 0.632141 3.79444 1.75736 2.66922C2.88258 1.54401 4.4087 0.911865 6 0.911865L18 0.911865C18.5304 0.911865 19.0391 1.12258 19.4142 1.49765C19.7893 1.87272 20 2.38143 20 2.91187C20 3.4423 19.7893 3.95101 19.4142 4.32608C19.0391 4.70115 18.5304 4.91187 18 4.91187H6ZM44 2.91187C44 2.38143 44.2107 1.87272 44.5858 1.49765C44.9609 1.12258 45.4696 0.911865 46 0.911865L58 0.911865C59.5913 0.911865 61.1174 1.54401 62.2426 2.66922C63.3679 3.79444 64 5.32057 64 6.91187V18.9119C64 19.4423 63.7893 19.951 63.4142 20.3261C63.0391 20.7012 62.5304 20.9119 62 20.9119C61.4696 20.9119 60.9609 20.7012 60.5858 20.3261C60.2107 19.951 60 19.4423 60 18.9119V6.91187C60 6.38143 59.7893 5.87272 59.4142 5.49765C59.0391 5.12258 58.5304 4.91187 58 4.91187H46C45.4696 4.91187 44.9609 4.70115 44.5858 4.32608C44.2107 3.95101 44 3.4423 44 2.91187ZM2 44.9119C2.53043 44.9119 3.03914 45.1226 3.41421 45.4977C3.78929 45.8727 4 46.3814 4 46.9119V58.9119C4 59.4423 4.21071 59.951 4.58579 60.3261C4.96086 60.7012 5.46957 60.9119 6 60.9119H18C18.5304 60.9119 19.0391 61.1226 19.4142 61.4977C19.7893 61.8727 20 62.3814 20 62.9119C20 63.4423 19.7893 63.951 19.4142 64.3261C19.0391 64.7012 18.5304 64.9119 18 64.9119H6C4.4087 64.9119 2.88258 64.2797 1.75736 63.1545C0.632141 62.0293 0 60.5032 0 58.9119L0 46.9119C0 46.3814 0.210714 45.8727 0.585786 45.4977C0.960859 45.1226 1.46957 44.9119 2 44.9119ZM62 44.9119C62.5304 44.9119 63.0391 45.1226 63.4142 45.4977C63.7893 45.8727 64 46.3814 64 46.9119V58.9119C64 60.5032 63.3679 62.0293 62.2426 63.1545C61.1174 64.2797 59.5913 64.9119 58 64.9119H46C45.4696 64.9119 44.9609 64.7012 44.5858 64.3261C44.2107 63.951 44 63.4423 44 62.9119C44 62.3814 44.2107 61.8727 44.5858 61.4977C44.9609 61.1226 45.4696 60.9119 46 60.9119H58C58.5304 60.9119 59.0391 60.7012 59.4142 60.3261C59.7893 59.951 60 59.4423 60 58.9119V46.9119C60 46.3814 60.2107 45.8727 60.5858 45.4977C60.9609 45.1226 61.4696 44.9119 62 44.9119Z" fill="white"/>
<path d="M12 56.9119C12 56.9119 8 56.9119 8 52.9119C8 48.9119 12 36.9119 32 36.9119C52 36.9119 56 48.9119 56 52.9119C56 56.9119 52 56.9119 52 56.9119H12ZM44 20.9119C44 24.0945 42.7357 27.1467 40.4853 29.3971C38.2348 31.6476 35.1826 32.9119 32 32.9119C28.8174 32.9119 25.7652 31.6476 23.5147 29.3971C21.2643 27.1467 20 24.0945 20 20.9119C20 17.7293 21.2643 14.677 23.5147 12.4266C25.7652 10.1761 28.8174 8.91187 32 8.91187C35.1826 8.91187 38.2348 10.1761 40.4853 12.4266C42.7357 14.677 44 17.7293 44 20.9119Z" fill="white"/>
</g>
<defs>
<clipPath id="clip0_115_603">
<rect width="64" height="64" fill="white" transform="translate(0 0.911865)"/>
</clipPath>
</defs>
</svg>
